<?xml version="1.0" encoding="UTF-8"?><svg id="a" xmlns="http://www.w3.org/2000/svg" viewBox="0 0 198.5 143"><defs><style>.b{fill:#fff;}.b,.c,.d,.e,.f,.g{stroke:#000;}.b,.c,.d,.e,.f,.g,.h{stroke-miterlimit:10;}.b,.f{stroke-width:6px;}.c,.h{stroke-linecap:round;stroke-width:4.5px;}.e{stroke-width:3px;}.f,.g,.h{fill:none;}.g{stroke-width:14px;}.h{stroke:red;}</style></defs><line class="g" x1="98.75" y1="123" x2="98.75" y2="44"/><line class="f" x1="34.75" y1="24" x2="162.75" y2="24"/><circle class="b" cx="98.75" cy="24" r="21"/><line class="h" x1="148.25" y1="57.5" x2="196.25" y2="57.5"/><g><line class="e" x1="190.25" y1="57.5" x2="171.25" y2="23.5"/><line class="e" x1="154.25" y1="56.5" x2="170.25" y2="27.5"/><circle class="d" cx="171.75" cy="24" r="7"/><g><path class="d" d="M191.75,59c0,11.05-8.95,20-20,20s-20-8.95-20-20"/><line class="c" x1="148.25" y1="57.5" x2="196.25" y2="57.5"/></g></g><g><line class="e" x1="44.25" y1="57.5" x2="25.25" y2="23.5"/><line class="e" x1="8.25" y1="56.5" x2="24.25" y2="27.5"/><circle class="d" cx="25.75" cy="24" r="7"/><g><path class="d" d="M45.75,59c0,11.05-8.95,20-20,20S5.75,70.05,5.75,59"/><line class="c" x1="2.25" y1="57.5" x2="50.25" y2="57.5"/></g></g><path d="M99.51,22.64c-3.32-.86-4.39-1.76-4.39-3.15,0-1.6,1.48-2.71,3.95-2.71,2.08,0,3.12,.79,3.5,2.05,.18,.59,.66,1.02,1.27,1.02h.44c.97,0,1.65-.95,1.32-1.86-.61-1.73-2.05-3.16-4.33-3.72v-1.01c0-1.22-.98-2.2-2.2-2.2s-2.2,.98-2.2,2.2v.97c-2.84,.61-5.12,2.46-5.12,5.29,0,3.38,2.8,5.07,6.88,6.05,3.66,.88,4.39,2.17,4.39,3.53,0,1.01-.72,2.62-3.95,2.62-2.42,0-3.66-.86-4.14-2.09-.22-.57-.72-.98-1.32-.98h-.41c-.98,0-1.67,1-1.3,1.9,.83,2.04,2.78,3.24,4.98,3.7v.98c0,1.22,.98,2.2,2.2,2.2s2.2-.98,2.2-2.2v-.95c2.85-.54,5.12-2.2,5.12-5.2,0-4.16-3.56-5.58-6.88-6.44Z"/><path d="M71.91,117h53.68c2.3,0,4.16,1.86,4.16,4.16v6.84h-62v-6.84c0-2.3,1.86-4.16,4.16-4.16Z"/><path d="M56.8,131h83.89c2.24,0,4.05,1.82,4.05,4.05v7.95H52.75v-7.95c0-2.24,1.82-4.05,4.05-4.05Z"/></svg>